<svg width="50" height="50" viewBox="0 0 50 50" fill="none" xmlns="http://www.w3.org/2000/svg">
<path d="M25.0002 21.4648V28.3895" stroke="#E94235" stroke-width="3" stroke-linecap="round" stroke-linejoin="round"/>
<path d="M22.6028 10.3823L7.37262 36.6946C7.12892 37.1157 7.0004 37.5935 7 38.0799C6.9996 38.5664 7.12733 39.0444 7.37033 39.4658C7.61333 39.8873 7.96304 40.2373 8.38427 40.4806C8.80551 40.724 9.2834 40.8521 9.76987 40.8521H40.2301C40.7166 40.8521 41.1945 40.724 41.6157 40.4806C42.037 40.2373 42.3867 39.8873 42.6297 39.4658C42.8727 39.0444 43.0004 38.5664 43 38.0799C42.9996 37.5935 42.8711 37.1157 42.6274 36.6946L27.3972 10.3823C27.1539 9.96193 26.8044 9.61294 26.3836 9.37033C25.9628 9.12771 25.4857 9 25 9C24.5143 9 24.0371 9.12771 23.6164 9.37033C23.1956 9.61294 22.8461 9.96193 22.6028 10.3823V10.3823Z" stroke="#E94235" stroke-width="3" stroke-linecap="round" stroke-linejoin="round"/>
<path d="M25.5776 34.6213C25.5776 34.9402 25.3191 35.1987 25.0002 35.1987C24.6814 35.1987 24.4229 34.9402 24.4229 34.6213C24.4229 34.3025 24.6814 34.0439 25.0002 34.0439C25.3191 34.0439 25.5776 34.3025 25.5776 34.6213Z" fill="#E94235" stroke="#E94235" stroke-width="3"/>
</svg>
