<svg width="28" height="28" viewBox="0 0 28 28" fill="none" xmlns="http://www.w3.org/2000/svg">
<path fill-rule="evenodd" clip-rule="evenodd" d="M6.3 5.2C6.00826 5.2 5.72847 5.31589 5.52218 5.52218C5.31589 5.72847 5.2 6.00826 5.2 6.3V21.7C5.2 21.9917 5.31589 22.2715 5.52218 22.4778C5.72847 22.6841 6.00826 22.8 6.3 22.8H10.7C11.3075 22.8 11.8 23.2925 11.8 23.9C11.8 24.5075 11.3075 25 10.7 25H6.3C5.42479 25 4.58542 24.6523 3.96655 24.0335C3.34768 23.4146 3 22.5752 3 21.7V6.3C3 5.42479 3.34768 4.58542 3.96655 3.96655C4.58542 3.34768 5.42479 3 6.3 3H10.7C11.3075 3 11.8 3.49249 11.8 4.1C11.8 4.70751 11.3075 5.2 10.7 5.2H6.3Z" fill="#1E1E1E"/>
<path fill-rule="evenodd" clip-rule="evenodd" d="M17.6222 7.72218C18.0518 7.29261 18.7482 7.29261 19.1778 7.72218L24.6778 13.2222C25.1074 13.6518 25.1074 14.3482 24.6778 14.7778L19.1778 20.2778C18.7482 20.7074 18.0518 20.7074 17.6222 20.2778C17.1926 19.8482 17.1926 19.1518 17.6222 18.7222L22.3444 14L17.6222 9.27782C17.1926 8.84824 17.1926 8.15176 17.6222 7.72218Z" fill="#1E1E1E"/>
<path fill-rule="evenodd" clip-rule="evenodd" d="M9.6 14C9.6 13.3925 10.0925 12.9 10.7 12.9H23.9C24.5075 12.9 25 13.3925 25 14C25 14.6075 24.5075 15.1 23.9 15.1H10.7C10.0925 15.1 9.6 14.6075 9.6 14Z" fill="#1E1E1E"/>
</svg>
