<svg width="24" height="24" viewBox="0 0 24 24" fill="none" xmlns="http://www.w3.org/2000/svg">
<path d="M2.26387 12.7132C2.12769 12.4975 2.05959 12.3897 2.02147 12.2234C1.99284 12.0985 1.99284 11.9015 2.02147 11.7766C2.05959 11.6103 2.12769 11.5025 2.26387 11.2868C3.38928 9.50484 6.73915 5 11.8442 5C16.9492 5 20.299 9.50484 21.4244 11.2868C21.5606 11.5025 21.6287 11.6103 21.6668 11.7766C21.6955 11.9015 21.6955 12.0985 21.6668 12.2234C21.6287 12.3897 21.5606 12.4975 21.4244 12.7132C20.299 14.4952 16.9492 19 11.8442 19C6.73915 19 3.38928 14.4952 2.26387 12.7132Z" stroke="black" stroke-width="2" stroke-linecap="round" stroke-linejoin="round"/>
<path d="M11.8442 15C13.501 15 14.8442 13.6569 14.8442 12C14.8442 10.3431 13.501 9 11.8442 9C10.1873 9 8.84415 10.3431 8.84415 12C8.84415 13.6569 10.1873 15 11.8442 15Z" stroke="black" stroke-width="2" stroke-linecap="round" stroke-linejoin="round"/>
</svg>
