<svg width="50" height="50" viewBox="0 0 50 50" fill="none" xmlns="http://www.w3.org/2000/svg">
<path d="M25 44C22.504 44.0041 20.0317 43.5154 17.7251 42.5618C15.4185 41.6083 13.3229 40.2086 11.5588 38.4433C4.14706 31.0333 4.14706 18.9773 11.5588 11.5673C15.1491 7.97791 19.9225 6 25 6C30.0775 6 34.8509 7.97639 38.4412 11.5673C45.8529 18.9773 45.8529 31.0333 38.4412 38.4433C36.6771 40.2086 34.5815 41.6083 32.2749 42.5618C29.9683 43.5154 27.496 44.0041 25 44ZM25 9.04061C22.9022 9.03482 20.824 9.44517 18.8859 10.2479C16.9478 11.0506 15.1882 12.2298 13.709 13.7171C7.48493 19.9412 7.48493 30.0679 13.709 36.2936C19.9347 42.5162 30.0638 42.5162 36.291 36.2936C42.5151 30.0694 42.5151 19.9427 36.291 13.7171C34.8116 12.23 33.052 11.0511 31.1139 10.2484C29.1758 9.44566 27.0978 9.03516 25 9.04061Z" fill="#3CB047"/>
<path d="M22.719 32.2997C22.5193 32.2999 22.3215 32.2607 22.137 32.1842C21.9525 32.1078 21.7849 31.9957 21.6439 31.8543L15.1917 25.4036C15.0505 25.2625 14.9385 25.0949 14.8621 24.9105C14.7857 24.7261 14.7464 24.5284 14.7464 24.3288C14.7464 24.1292 14.7857 23.9315 14.8621 23.7471C14.9385 23.5626 15.0505 23.3951 15.1917 23.2539C15.3329 23.1128 15.5005 23.0008 15.6849 22.9244C15.8694 22.848 16.0671 22.8087 16.2668 22.8087C16.4665 22.8087 16.6642 22.848 16.8486 22.9244C17.0331 23.0008 17.2007 23.1128 17.3419 23.2539L22.719 28.6297L32.6611 18.69C32.8023 18.5488 32.9699 18.4369 33.1544 18.3605C33.3389 18.2841 33.5366 18.2448 33.7362 18.2448C33.9359 18.2448 34.1336 18.2841 34.3181 18.3605C34.5026 18.4369 34.6702 18.5488 34.8114 18.69C34.9525 18.8311 35.0645 18.9987 35.1409 19.1831C35.2174 19.3675 35.2567 19.5652 35.2567 19.7648C35.2567 19.9644 35.2174 20.1621 35.1409 20.3465C35.0645 20.531 34.9525 20.6985 34.8114 20.8397L23.7941 31.8543C23.6531 31.9957 23.4855 32.1078 23.301 32.1842C23.1165 32.2607 22.9187 32.2999 22.719 32.2997Z" fill="#3CB047"/>
</svg>
