<svg width="28" height="28" viewBox="0 0 28 28" fill="none" xmlns="http://www.w3.org/2000/svg">
<path fill-rule="evenodd" clip-rule="evenodd" d="M22.6234 5.37658C23.1255 5.87868 23.1255 6.69275 22.6234 7.19485L7.19485 22.6234C6.69275 23.1255 5.87868 23.1255 5.37658 22.6234C4.87447 22.1213 4.87447 21.3073 5.37658 20.8051L20.8051 5.37658C21.3073 4.87447 22.1213 4.87447 22.6234 5.37658Z" fill="black"/>
<path fill-rule="evenodd" clip-rule="evenodd" d="M5.37658 5.37658C5.87868 4.87447 6.69275 4.87447 7.19485 5.37658L22.6234 20.8051C23.1255 21.3073 23.1255 22.1213 22.6234 22.6234C22.1213 23.1255 21.3073 23.1255 20.8051 22.6234L5.37658 7.19485C4.87447 6.69275 4.87447 5.87868 5.37658 5.37658Z" fill="black"/>
</svg>
