<svg width="110" height="110" viewBox="0 0 110 110" fill="none" xmlns="http://www.w3.org/2000/svg">
<path fill-rule="evenodd" clip-rule="evenodd" d="M30.2727 26.3636C29.1877 26.3636 28.1472 26.7946 27.38 27.5618C26.6128 28.329 26.1818 29.3696 26.1818 30.4545V87.7273C26.1818 88.8122 26.6128 89.8528 27.38 90.62C28.1472 91.3872 29.1878 91.8182 30.2727 91.8182H79.3636C80.4486 91.8182 81.4891 91.3872 82.2563 90.62C83.0235 89.8528 83.4545 88.8122 83.4545 87.7273V30.4545C83.4545 29.3696 83.0235 28.329 82.2563 27.5618C81.4892 26.7946 80.4486 26.3636 79.3636 26.3636H71.1818C68.9225 26.3636 67.0909 24.5321 67.0909 22.2727C67.0909 20.0134 68.9225 18.1818 71.1818 18.1818H79.3636C82.6186 18.1818 85.7402 19.4748 88.0418 21.7764C90.3433 24.078 91.6364 27.1996 91.6364 30.4545V87.7273C91.6364 90.9822 90.3433 94.1038 88.0418 96.4054C85.7402 98.707 82.6186 100 79.3636 100H30.2727C27.0178 100 23.8962 98.707 21.5946 96.4054C19.293 94.1038 18 90.9822 18 87.7273V30.4545C18 27.1996 19.293 24.078 21.5946 21.7764C23.8962 19.4748 27.0178 18.1818 30.2727 18.1818H38.4545C40.7139 18.1818 42.5455 20.0134 42.5455 22.2727C42.5455 24.5321 40.7139 26.3636 38.4545 26.3636H30.2727Z" fill="#DADADA"/>
<path fill-rule="evenodd" clip-rule="evenodd" d="M36.76 12.3964C38.2944 10.862 40.3755 10 42.5455 10H67.0909C69.2609 10 71.3419 10.862 72.8763 12.3964C74.4107 13.9308 75.2727 16.0119 75.2727 18.1818V26.3636C75.2727 28.5336 74.4107 30.6147 72.8763 32.1491C71.3419 33.6834 69.2609 34.5455 67.0909 34.5455H42.5455C40.3755 34.5455 38.2944 33.6834 36.76 32.1491C35.2257 30.6147 34.3636 28.5336 34.3636 26.3636V18.1818C34.3636 16.0119 35.2256 13.9308 36.76 12.3964ZM67.0909 18.1818H42.5455V26.3636H67.0909V18.1818Z" fill="#DADADA"/>
<path fill-rule="evenodd" clip-rule="evenodd" d="M50.7273 50.9091C50.7273 48.6497 52.5588 46.8182 54.8182 46.8182H71.1818C73.4412 46.8182 75.2727 48.6497 75.2727 50.9091C75.2727 53.1684 73.4412 55 71.1818 55H54.8182C52.5588 55 50.7273 53.1684 50.7273 50.9091Z" fill="#DADADA"/>
<path fill-rule="evenodd" clip-rule="evenodd" d="M50.7273 71.3636C50.7273 69.1043 52.5588 67.2727 54.8182 67.2727H71.1818C73.4412 67.2727 75.2727 69.1043 75.2727 71.3636C75.2727 73.623 73.4412 75.4545 71.1818 75.4545H54.8182C52.5588 75.4545 50.7273 73.623 50.7273 71.3636Z" fill="#DADADA"/>
<path fill-rule="evenodd" clip-rule="evenodd" d="M34.3636 50.9091C34.3636 48.6497 36.1952 46.8182 38.4545 46.8182H38.4955C40.7548 46.8182 42.5864 48.6497 42.5864 50.9091C42.5864 53.1684 40.7548 55 38.4955 55H38.4545C36.1952 55 34.3636 53.1684 34.3636 50.9091Z" fill="#DADADA"/>
<path fill-rule="evenodd" clip-rule="evenodd" d="M34.3636 71.3636C34.3636 69.1043 36.1952 67.2727 38.4545 67.2727H38.4955C40.7548 67.2727 42.5864 69.1043 42.5864 71.3636C42.5864 73.623 40.7548 75.4545 38.4955 75.4545H38.4545C36.1952 75.4545 34.3636 73.623 34.3636 71.3636Z" fill="#DADADA"/>
</svg>
