<svg width="28" height="28" viewBox="0 0 28 28" fill="none" xmlns="http://www.w3.org/2000/svg">
<path fill-rule="evenodd" clip-rule="evenodd" d="M10.8145 8.35147C11.2808 8.8201 11.2808 9.5799 10.8145 10.0485L6.88264 14L10.8145 17.9515C11.2808 18.4201 11.2808 19.1799 10.8145 19.6485C10.3482 20.1172 9.59214 20.1172 9.12584 19.6485L4.34972 14.8485C3.88343 14.3799 3.88343 13.6201 4.34972 13.1515L9.12584 8.35147C9.59214 7.88284 10.3482 7.88284 10.8145 8.35147Z" fill="black"/>
<path fill-rule="evenodd" clip-rule="evenodd" d="M4 14C4 13.3373 4.53459 12.8 5.19403 12.8L22.806 12.8C23.4654 12.8 24 13.3373 24 14C24 14.6627 23.4654 15.2 22.806 15.2L5.19403 15.2C4.53459 15.2 4 14.6627 4 14Z" fill="black"/>
</svg>
